{"glyphs":{"\r":{"ha":708,"x_min":0,"x_max":0,"o":""}," ":{"ha":361,"x_min":0,"x_max":0,"o":""},"ก":{"ha":905,"x_min":83,"x_max":802,"o":"m 106 0 l 106 267 q 145 382 106 342 q 271 440 184 423 q 184 478 243 461 q 83 494 125 494 q 180 705 90 632 q 440 778 271 778 q 712 704 623 778 q 802 472 802 629 l 802 0 l 608 0 l 608 429 q 568 585 608 536 q 444 635 527 635 q 334 616 377 635 q 279 562 291 598 q 374 532 325 555 q 439 486 422 508 l 439 400 q 332 345 365 382 q 298 250 298 308 l 298 0 l 106 0 z "},"ข":{"ha":1017,"x_min":17,"x_max":913,"o":"m 496 155 l 600 155 q 689 182 658 155 q 720 273 720 209 l 720 764 l 913 764 l 913 248 q 845 64 913 128 q 652 0 778 0 l 208 0 l 208 127 l 302 155 l 302 304 q 334 461 302 399 q 440 570 366 523 q 388 654 429 623 q 282 685 347 685 q 172 657 216 685 q 114 572 127 629 q 183 603 142 603 q 266 570 235 603 q 297 482 297 537 q 261 391 297 425 q 167 357 225 357 q 56 399 95 357 q 17 522 17 442 q 96 710 17 642 q 314 778 175 778 q 538 714 454 778 q 635 536 622 651 q 524 443 551 489 q 496 311 496 396 l 496 155 m 215 481 q 202 518 215 504 q 165 532 189 532 q 130 518 142 532 q 117 481 117 504 q 130 443 117 457 q 165 429 142 429 q 202 443 189 429 q 215 481 215 457 z "},"ฃ":{"ha":1017,"x_min":17,"x_max":913,"o":"m 496 155 l 600 155 q 689 182 658 155 q 720 273 720 209 l 720 764 l 913 764 l 913 248 q 845 64 913 128 q 652 0 778 0 l 208 0 l 208 127 l 302 155 l 302 304 q 334 461 302 399 q 440 570 366 523 q 380 669 433 651 l 296 593 l 203 673 q 145 639 170 666 q 114 572 119 612 q 183 603 142 603 q 266 570 235 603 q 297 482 297 537 q 261 391 297 425 q 167 357 225 357 q 56 402 95 357 q 17 528 17 448 q 68 694 17 629 q 214 778 119 760 l 297 705 l 376 778 q 554 708 486 772 q 635 536 622 645 q 524 443 551 489 q 496 311 496 396 l 496 155 m 215 481 q 202 518 215 504 q 165 532 189 532 q 130 518 142 532 q 117 481 117 504 q 130 443 117 457 q 165 429 142 429 q 202 443 189 429 q 215 481 215 457 z "},"ค":{"ha":954,"x_min":69,"x_max":850,"o":"m 532 386 q 516 428 532 414 q 473 443 500 443 q 433 428 450 443 q 416 386 416 414 q 433 345 416 360 q 473 329 450 329 q 516 345 500 329 q 532 386 532 360 m 285 318 q 367 470 321 424 q 475 515 412 515 q 576 481 541 515 q 612 386 612 447 q 577 291 612 324 q 475 257 542 257 q 419 269 444 257 q 380 296 393 280 q 347 221 358 255 q 328 140 336 186 q 319 39 319 94 l 319 0 l 126 0 l 126 81 q 98 318 126 210 q 75 418 81 381 q 69 494 69 454 q 174 702 69 625 q 460 778 279 778 q 751 700 652 778 q 850 472 850 622 l 850 0 l 657 0 l 657 429 q 610 580 657 525 q 468 635 563 635 q 319 589 376 635 q 261 468 261 543 q 277 351 261 410 l 285 318 z "},"ฅ":{"ha":954,"x_min":69,"x_max":850,"o":"m 532 386 q 516 428 532 414 q 473 443 500 443 q 433 428 450 443 q 416 386 416 414 q 433 345 416 360 q 473 329 450 329 q 516 345 500 329 q 532 386 532 360 m 285 318 q 367 470 321 424 q 475 515 412 515 q 576 481 541 515 q 612 386 612 447 q 577 291 612 324 q 475 257 542 257 q 419 269 444 257 q 380 296 393 280 q 347 221 358 255 q 328 140 336 186 q 319 39 319 94 l 319 0 l 126 0 l 126 81 q 98 318 126 210 q 75 418 81 381 q 69 494 69 454 q 147 688 69 608 q 361 794 225 769 l 469 705 l 575 794 q 781 696 711 772 q 850 486 850 621 l 850 0 l 657 0 l 657 452 q 636 577 657 536 q 566 640 615 618 l 467 558 l 367 640 q 287 577 312 621 q 261 475 261 534 q 269 388 261 426 q 285 318 277 351 z "},"ฆ":{"ha":997,"x_min":17,"x_max":889,"o":"m 302 318 q 332 462 302 405 q 440 570 361 519 q 380 669 433 651 l 296 593 l 203 673 q 145 639 170 666 q 114 572 119 612 q 183 603 142 603 q 266 570 235 603 q 297 482 297 537 q 261 391 297 425 q 167 357 225 357 q 56 402 95 357 q 17 528 17 448 q 68 694 17 629 q 214 778 119 760 l 297 705 l 376 778 q 554 708 486 772 q 635 536 622 645 q 545 473 572 500 q 507 413 518 446 q 496 325 496 379 l 496 297 q 599 262 543 290 q 696 195 655 235 l 696 762 l 889 762 l 889 0 l 710 0 q 608 132 666 79 q 496 197 549 185 l 496 174 q 446 33 496 79 q 294 -12 397 -12 q 163 24 206 -12 q 121 126 121 61 q 170 241 121 195 q 302 298 218 287 l 302 318 m 215 481 q 202 518 215 504 q 165 532 189 532 q 130 518 142 532 q 117 481 117 504 q 130 443 117 457 q 165 429 142 429 q 202 443 189 429 q 215 481 215 457 m 233 123 q 243 90 233 102 q 267 77 252 77 q 302 127 302 77 l 302 208 q 253 179 272 203 q 233 123 233 155 z "},"ง":{"ha":720,"x_min":20,"x_max":615,"o":"m 422 513 q 331 549 365 514 q 297 637 297 583 q 336 734 297 698 q 441 771 376 771 q 571 719 526 771 q 615 568 615 667 l 615 203 q 559 41 615 96 q 380 -14 503 -14 q 255 6 302 -14 q 178 73 209 26 q 118 225 148 120 q 89 304 103 276 q 61 345 75 332 q 20 357 47 357 l 20 500 q 66 505 47 505 q 199 460 152 505 q 285 300 247 414 q 329 173 318 198 q 350 139 340 149 q 378 129 360 129 q 411 145 399 129 q 422 204 422 162 l 422 513 m 378 642 q 394 601 378 616 q 436 586 410 586 q 476 601 460 586 q 493 642 493 616 q 476 683 493 667 q 436 699 460 699 q 394 683 410 699 q 378 642 378 667 z "},"จ":{"ha":842,"x_min":49,"x_max":737,"o":"m 737 203 q 680 41 737 96 q 500 -14 623 -14 q 387 3 431 -14 q 313 55 342 19 q 253 172 283 92 l 228 240 q 184 236 216 236 q 85 269 122 236 q 49 361 49 302 q 92 461 49 424 q 205 498 135 498 q 311 467 269 498 q 378 364 353 435 l 419 244 q 459 151 444 174 q 497 129 474 129 q 533 146 522 129 q 545 204 545 164 l 545 439 q 500 579 545 532 q 359 625 455 625 q 122 550 260 625 l 56 684 q 403 778 210 778 q 652 698 566 778 q 737 464 737 618 l 737 203 m 129 364 q 145 323 129 338 q 187 309 161 309 q 228 323 212 309 q 244 364 244 338 q 228 406 244 390 q 187 421 212 421 q 145 406 161 421 q 129 364 129 390 z "},"ฉ":{"ha":924,"x_min":17,"x_max":909,"o":"m 97 389 q 113 349 97 363 q 155 334 128 334 q 196 349 179 334 q 212 389 212 363 q 196 430 212 415 q 155 446 179 446 q 113 430 128 446 q 97 389 97 415 m 142 260 q 50 296 83 262 q 17 385 17 330 q 56 483 17 448 q 168 518 96 518 q 292 464 249 518 q 335 315 335 410 l 335 195 q 428 260 371 232 q 534 297 485 289 l 534 432 q 357 625 534 625 q 98 557 241 625 l 36 690 q 207 757 119 736 q 397 778 294 778 q 728 457 728 778 l 728 298 q 861 241 813 287 q 909 126 909 195 q 867 24 909 61 q 736 -12 824 -12 q 584 33 633 -12 q 534 174 534 79 l 534 197 q 423 131 481 186 q 323 0 365 75 l 142 0 l 142 260 m 798 123 q 779 178 798 155 q 728 208 760 202 l 728 127 q 764 77 728 77 q 788 90 779 77 q 798 123 798 102 z "},"ช":{"ha":1017,"x_min":17,"x_max":1042,"o":"m 720 421 q 701 493 720 466 q 656 533 683 521 l 656 621 q 742 666 709 635 q 806 750 775 696 l 844 818 l 1042 818 l 997 743 q 906 616 941 650 q 831 571 871 582 q 892 526 871 557 q 913 454 913 495 l 913 248 q 845 64 913 128 q 652 0 778 0 l 208 0 l 208 127 l 302 155 l 302 304 q 327 484 302 423 q 419 597 351 544 q 372 664 410 642 q 282 685 334 685 q 172 657 216 685 q 114 572 127 629 q 183 603 142 603 q 266 570 235 603 q 297 482 297 537 q 261 391 297 425 q 167 357 225 357 q 56 399 95 357 q 17 522 17 442 q 96 710 17 642 q 314 778 175 778 q 527 728 455 778 q 614 564 598 678 q 541 493 565 526 q 506 421 516 460 q 496 311 496 382 l 496 155 l 600 155 q 689 182 658 155 q 720 273 720 209 l 720 421 m 215 481 q 202 518 215 504 q 165 532 189 532 q 130 518 142 532 q 117 481 117 504 q 130 443 117 457 q 165 429 142 429 q 202 443 189 429 q 215 481 215 457 z "},"ซ":{"ha":1017,"x_min":17,"x_max":1042,"o":"m 215 481 q 202 518 215 504 q 165 532 189 532 q 130 518 142 532 q 117 481 117 504 q 130 443 117 457 q 165 429 142 429 q 202 443 189 429 q 215 481 215 457 m 720 421 q 701 493 720 466 q 656 533 683 521 l 656 621 q 742 666 709 635 q 806 750 775 696 l 844 818 l 1042 818 l 997 743 q 906 616 941 650 q 831 571 871 582 q 892 526 871 557 q 913 454 913 495 l 913 248 q 845 64 913 128 q 652 0 778 0 l 208 0 l 208 127 l 302 155 l 302 318 q 328 486 302 425 q 419 597 353 547 q 406 645 419 626 q 375 671 393 663 l 296 595 l 203 673 q 145 639 170 666 q 114 572 119 612 q 183 603 142 603 q 266 570 235 603 q 297 482 297 537 q 261 391 297 425 q 167 357 225 357 q 56 402 95 357 q 17 528 17 448 q 68 694 17 629 q 214 778 119 760 l 297 705 l 376 778 q 541 719 479 774 q 614 562 602 663 q 520 460 544 511 q 496 325 496 409 l 496 155 l 600 155 q 689 182 658 155 q 720 273 720 209 l 720 421 z "},"ฌ":{"ha":1336,"x_min":83,"x_max":1227,"o":"m 838 297 q 940 262 885 290 q 1035 195 996 234 l 1035 764 l 1227 764 l 1227 0 l 1048 0 q 949 131 1007 77 q 838 197 891 186 l 838 174 q 788 33 838 79 q 636 -12 739 -12 q 505 24 548 -12 q 463 126 463 61 q 511 241 463 195 q 644 298 559 288 l 644 437 q 596 588 644 541 q 446 635 547 635 q 334 615 379 635 q 279 562 290 596 q 374 532 325 555 q 439 486 422 508 l 439 400 q 315 346 347 376 q 283 267 283 315 l 283 245 q 377 209 344 242 q 410 121 410 176 q 370 24 410 60 q 265 -12 330 -12 q 90 176 90 -12 l 90 253 q 135 377 90 331 q 271 440 180 422 q 184 478 243 461 q 83 494 125 494 q 185 705 90 632 q 458 778 280 778 q 744 704 650 778 q 838 473 838 630 l 838 297 m 329 117 q 313 157 329 142 q 271 172 297 172 q 230 157 247 172 q 214 117 214 142 q 230 75 214 91 q 271 60 247 60 q 313 75 297 60 q 329 117 329 91 m 575 123 q 584 90 575 102 q 608 77 593 77 q 644 127 644 77 l 644 208 q 594 179 614 203 q 575 123 575 155 z "},"ญ":{"ha":1280,"x_min":83,"x_max":1177,"o":"m 1177 248 q 1113 62 1177 123 q 928 0 1050 0 l 593 0 l 593 429 q 554 585 593 536 q 436 635 515 635 q 279 562 302 635 q 374 532 325 555 q 439 486 422 508 l 439 400 q 315 346 347 376 q 283 267 283 315 l 283 245 q 377 209 344 242 q 410 121 410 176 q 370 24 410 60 q 265 -12 330 -12 q 90 176 90 -12 l 90 253 q 135 377 90 331 q 271 440 180 422 q 184 478 243 461 q 83 494 125 494 q 180 705 90 632 q 440 778 271 778 q 701 704 615 778 q 786 472 786 629 l 786 155 l 876 155 q 959 182 935 155 q 983 273 983 209 l 983 764 l 1177 764 l 1177 248 m 329 117 q 313 157 329 142 q 271 172 297 172 q 230 157 247 172 q 214 117 214 142 q 230 75 214 91 q 271 60 247 60 q 313 75 297 60 q 329 117 329 91 m 804 -329 q 662 -292 713 -329 q 610 -186 610 -254 q 650 -92 610 -127 q 751 -57 690 -57 q 853 -91 815 -57 q 890 -179 890 -125 q 867 -248 890 -225 q 962 -188 922 -230 q 1034 -68 1003 -145 l 1141 -68 q 1006 -269 1088 -208 q 804 -329 924 -329 m 693 -187 q 709 -228 693 -213 q 751 -243 724 -243 q 792 -228 775 -243 q 808 -187 808 -213 q 792 -145 808 -160 q 751 -131 775 -131 q 709 -145 724 -131 q 693 -187 693 -160 z "},"ฎ":{"ha":942,"x_min":17,"x_max":838,"o":"m 339 -146 q 290 -195 290 -146 q 305 -232 290 -220 q 339 -244 319 -244 q 427 -176 394 -244 q 339 -146 375 -146 m 335 150 q 289 30 335 73 q 160 -12 243 -12 q 54 22 92 -12 q 17 117 17 56 q 52 207 17 172 q 142 245 86 242 l 142 260 q 180 383 142 339 q 302 443 219 427 q 215 479 273 464 q 115 494 157 494 q 217 706 125 635 q 475 778 308 778 q 748 704 658 778 q 838 472 838 630 l 838 -353 l 644 -353 q 580 -283 621 -321 q 494 -215 538 -245 q 422 -292 463 -268 q 338 -317 380 -317 q 244 -284 279 -317 q 208 -197 208 -252 q 241 -108 208 -142 q 338 -74 275 -74 q 449 -103 385 -74 q 460 -26 456 -68 l 549 -26 q 525 -146 543 -93 q 644 -232 593 -186 l 644 429 q 476 635 644 635 q 310 562 336 635 q 402 527 355 551 q 471 481 449 504 l 471 400 q 367 345 399 382 q 335 250 335 308 l 335 150 m 97 117 q 113 75 97 91 q 155 60 130 60 q 196 75 179 60 q 212 117 212 91 q 196 157 212 142 q 155 172 179 172 q 113 157 130 172 q 97 117 97 142 z "},"ฏ":{"ha":942,"x_min":17,"x_max":838,"o":"m 838 -353 l 671 -353 q 545 -225 620 -288 q 431 -332 500 -298 q 355 -244 393 -281 q 278 -310 319 -286 q 183 -334 238 -334 q 91 -300 126 -334 q 56 -210 56 -267 q 94 -115 56 -150 q 201 -81 132 -81 q 338 -129 273 -81 q 370 -52 359 -92 q 389 58 380 -13 l 478 58 q 452 -74 473 -10 q 401 -180 432 -138 q 444 -228 427 -205 q 524 -107 498 -176 q 644 -204 551 -126 l 644 429 q 476 635 644 635 q 310 562 336 635 q 402 527 355 551 q 471 481 449 504 l 471 400 q 367 345 399 382 q 335 250 335 308 l 335 150 q 289 30 335 73 q 160 -12 243 -12 q 54 22 92 -12 q 17 117 17 56 q 52 207 17 172 q 142 245 86 242 l 142 260 q 180 383 142 339 q 302 443 219 427 q 215 479 273 464 q 115 494 157 494 q 217 706 125 635 q 475 778 308 778 q 748 704 658 778 q 838 472 838 630 l 838 -353 m 193 -153 q 155 -165 172 -153 q 138 -207 138 -177 q 153 -248 138 -234 q 191 -261 169 -261 q 297 -196 247 -261 q 193 -153 239 -153 m 97 117 q 113 75 97 91 q 155 60 130 60 q 196 75 179 60 q 212 117 212 91 q 196 157 212 142 q 155 172 179 172 q 113 157 130 172 q 97 117 97 142 z "},"ฐ":{"ha":811,"x_min":58,"x_max":736,"o":"m 728 203 q 671 39 728 91 q 497 -14 614 -14 q 400 -3 439 -14 q 333 28 361 7 q 269 102 304 50 q 227 96 252 96 q 127 129 163 96 q 90 221 90 163 q 135 322 90 286 q 248 358 179 358 q 338 330 302 358 q 415 227 375 302 l 439 182 q 467 139 455 149 q 494 129 478 129 q 524 144 514 129 q 534 204 534 159 l 534 310 q 505 393 534 369 q 404 416 475 416 l 72 416 l 72 521 q 139 713 72 648 q 335 778 205 778 l 736 778 l 736 633 l 372 633 q 293 618 316 633 q 264 561 269 602 l 421 561 q 600 537 534 561 q 697 461 667 513 q 728 315 728 410 l 728 203 m 286 224 q 270 265 286 250 q 229 281 253 281 q 187 265 203 281 q 171 224 171 250 q 187 183 171 199 q 229 168 203 168 q 270 183 253 168 q 286 224 286 199 m 416 -66 q 380 -197 403 -150 q 419 -244 398 -214 q 465 -189 444 -223 q 590 -249 541 -218 l 590 -208 q 527 -186 551 -206 q 504 -127 504 -166 q 530 -65 504 -88 q 599 -41 555 -41 q 685 -73 652 -41 q 718 -170 718 -104 l 718 -353 l 597 -353 q 481 -281 545 -305 q 392 -353 444 -322 q 338 -277 367 -312 q 276 -331 311 -311 q 184 -350 240 -350 q 92 -318 126 -350 q 58 -232 58 -287 q 97 -138 58 -173 q 203 -103 135 -103 q 313 -135 254 -103 q 325 -66 320 -112 l 416 -66 m 562 -126 q 595 -157 562 -157 q 617 -149 608 -157 q 625 -126 625 -141 q 617 -103 625 -112 q 595 -94 608 -94 q 571 -103 579 -94 q 562 -126 562 -112 m 196 -175 q 157 -187 174 -175 q 140 -229 140 -199 q 193 -278 140 -278 q 282 -211 249 -278 q 196 -175 239 -175 z "},"ฑ":{"ha":1157,"x_min":17,"x_max":1053,"o":"m 302 0 l 302 318 q 330 482 302 420 q 427 590 357 545 q 367 669 420 651 l 282 593 l 203 673 q 145 639 170 666 q 114 572 119 612 q 183 603 142 603 q 266 570 235 603 q 297 482 297 537 q 261 391 297 425 q 167 357 225 357 q 56 402 95 357 q 17 528 17 448 q 68 694 17 629 q 214 778 119 760 l 283 705 l 363 778 q 548 723 486 771 q 621 574 610 674 q 522 479 549 530 q 496 325 496 429 l 496 183 l 711 633 q 790 747 751 717 q 900 778 829 778 q 1012 735 971 778 q 1053 615 1053 692 l 1053 0 l 860 0 l 860 558 q 840 604 860 604 q 823 596 831 604 q 803 561 815 587 l 534 0 l 302 0 m 215 481 q 202 518 215 504 q 165 532 189 532 q 130 518 142 532 q 117 481 117 504 q 130 443 117 457 q 165 429 142 429 q 202 443 189 429 q 215 481 215 457 z "},"ฒ":{"ha":1392,"x_min":69,"x_max":1287,"o":"m 524 400 q 507 442 524 427 q 465 457 491 457 q 425 442 441 457 q 408 400 408 427 q 425 359 408 374 q 465 343 441 343 q 507 359 491 343 q 524 400 524 374 m 1287 0 l 1108 0 q 1022 119 1072 66 q 917 197 971 172 l 917 174 q 867 33 917 79 q 715 -12 818 -12 q 585 24 627 -12 q 542 126 542 61 q 590 241 542 195 q 724 298 639 288 l 724 465 q 686 571 724 528 q 566 640 648 614 l 467 558 l 367 640 q 287 577 312 621 q 261 475 261 534 q 268 398 261 434 q 282 323 274 362 q 300 237 291 283 q 313 129 309 191 l 349 162 q 447 271 433 234 q 358 309 389 275 q 328 400 328 343 q 363 495 328 461 q 465 529 399 529 q 569 492 533 529 q 604 386 604 456 q 585 292 604 336 q 520 199 565 247 q 377 71 476 152 q 297 0 315 20 l 126 0 l 126 81 q 98 318 126 210 q 75 418 81 381 q 69 494 69 454 q 147 688 69 608 q 361 794 225 769 l 469 705 l 575 794 q 917 486 917 744 l 917 293 q 1015 254 966 281 q 1095 195 1063 226 l 1095 764 l 1287 764 l 1287 0 m 654 123 q 664 90 654 102 q 688 77 673 77 q 724 127 724 77 l 724 208 q 673 179 692 203 q 654 123 654 155 z "},"ณ":{"ha":1372,"x_min":83,"x_max":1358,"o":"m 329 117 q 313 157 329 142 q 271 172 297 172 q 230 157 247 172 q 214 117 214 142 q 230 75 214 91 q 271 60 247 60 q 313 75 297 60 q 329 117 329 91 m 593 0 l 593 429 q 554 585 593 536 q 436 635 515 635 q 279 562 302 635 q 374 532 325 555 q 439 486 422 508 l 439 400 q 315 346 347 376 q 283 267 283 315 l 283 245 q 377 209 344 242 q 410 121 410 176 q 370 24 410 60 q 265 -12 330 -12 q 90 176 90 -12 l 90 253 q 135 377 90 331 q 271 440 180 422 q 184 478 243 461 q 83 494 125 494 q 180 705 90 632 q 440 778 271 778 q 701 704 615 778 q 786 472 786 629 l 786 195 q 880 261 825 234 q 983 297 935 289 l 983 764 l 1177 764 l 1177 298 q 1310 241 1261 287 q 1358 126 1358 195 q 1316 24 1358 61 q 1185 -12 1273 -12 q 1033 33 1082 -12 q 983 174 983 79 l 983 197 q 872 131 930 186 q 772 0 814 76 l 593 0 m 1246 123 q 1226 179 1246 155 q 1177 208 1207 203 l 1177 127 q 1213 77 1177 77 q 1237 90 1227 77 q 1246 123 1246 102 z "},"ด":{"ha":954,"x_min":69,"x_max":850,"o":"m 521 386 q 505 428 521 414 q 463 443 488 443 q 422 428 439 443 q 406 386 406 414 q 422 345 406 360 q 463 329 439 329 q 505 345 488 329 q 521 386 521 360 m 444 257 q 356 295 387 261 q 325 386 325 330 q 361 481 325 447 q 463 515 397 515 q 566 478 530 515 q 602 372 602 441 q 494 135 602 229 q 395 56 452 98 q 319 0 336 14 l 126 0 l 126 81 q 98 318 126 210 q 75 418 81 381 q 69 494 69 454 q 175 701 69 623 q 464 778 281 778 q 751 700 653 778 q 850 472 850 623 l 850 0 l 656 0 l 656 429 q 607 580 656 525 q 463 635 559 635 q 316 588 370 635 q 262 463 262 542 q 283 314 262 404 q 313 129 307 210 q 348 160 328 144 q 387 191 368 175 q 422 222 406 206 q 444 257 437 239 z "},"ต":{"ha":954,"x_min":69,"x_max":850,"o":"m 521 386 q 505 428 521 414 q 463 443 488 443 q 422 428 439 443 q 406 386 406 414 q 422 345 406 360 q 463 329 439 329 q 505 345 488 329 q 521 386 521 360 m 69 494 q 147 688 69 608 q 361 794 225 769 l 469 705 l 575 794 q 781 696 711 772 q 850 486 850 621 l 850 0 l 657 0 l 657 452 q 636 577 657 536 q 566 640 615 618 l 467 558 l 367 640 q 287 577 312 621 q 261 475 261 534 q 268 398 261 434 q 282 323 274 362 q 300 237 291 283 q 313 129 309 191 q 348 160 328 144 q 387 191 368 175 q 422 222 406 206 q 444 257 437 239 q 356 295 387 261 q 325 386 325 330 q 361 481 325 447 q 463 515 397 515 q 566 478 530 515 q 602 372 602 441 q 494 135 602 229 q 395 56 452 98 q 319 0 336 14 l 126 0 l 126 81 q 98 318 126 210 q 75 418 81 381 q 69 494 69 454 z "},"ถ":{"ha":905,"x_min":83,"x_max":802,"o":"m 283 245 q 377 209 344 242 q 410 121 410 176 q 370 24 410 60 q 265 -12 330 -12 q 90 176 90 -12 l 90 253 q 135 377 90 331 q 271 440 180 422 q 184 478 243 461 q 83 494 125 494 q 180 705 90 632 q 440 778 271 778 q 712 704 623 778 q 802 472 802 629 l 802 0 l 608 0 l 608 429 q 568 585 608 536 q 444 635 527 635 q 334 616 377 635 q 279 562 291 598 q 374 532 325 555 q 439 486 422 508 l 439 400 q 315 346 347 376 q 283 267 283 315 l 283 245 m 329 117 q 313 157 329 142 q 271 172 297 172 q 230 157 247 172 q 214 117 214 142 q 230 75 214 91 q 271 60 247 60 q 313 75 297 60 q 329 117 329 91 z "},"ท":{"ha":961,"x_min":17,"x_max":857,"o":"m 335 256 l 513 627 q 593 745 553 711 q 704 778 633 778 q 817 734 776 778 q 857 615 857 690 l 857 0 l 664 0 l 664 558 q 644 604 664 604 q 627 594 635 604 q 607 558 620 584 l 339 0 l 142 0 l 142 513 q 51 549 85 516 q 17 637 17 582 q 56 734 17 698 q 161 771 96 771 q 291 719 246 771 q 335 568 335 667 l 335 256 m 97 642 q 113 601 97 616 q 155 586 130 586 q 196 601 179 586 q 212 642 212 616 q 196 683 212 667 q 155 699 179 699 q 113 683 130 699 q 97 642 97 667 z "},"ธ":{"ha":865,"x_min":83,"x_max":775,"o":"m 582 264 q 552 347 582 323 q 452 371 523 371 l 83 371 l 83 510 q 151 699 83 634 q 346 764 218 764 l 751 764 l 751 619 l 383 619 q 299 595 323 619 q 275 515 275 570 l 468 515 q 648 491 581 515 q 745 415 714 467 q 775 269 775 363 l 775 261 q 702 60 775 119 q 468 0 629 0 l 109 0 l 109 277 l 301 277 l 301 144 l 452 144 q 552 171 522 144 q 582 257 582 197 l 582 264 z "},"น":{"ha":924,"x_min":17,"x_max":909,"o":"m 97 642 q 113 601 97 616 q 155 586 128 586 q 196 601 179 586 q 212 642 212 616 q 196 683 212 667 q 155 699 179 699 q 113 683 128 699 q 97 642 97 667 m 798 123 q 779 178 798 155 q 728 208 760 202 l 728 127 q 764 77 728 77 q 788 90 779 77 q 798 123 798 102 m 142 0 l 142 513 q 50 549 83 515 q 17 637 17 583 q 56 736 17 701 q 168 771 96 771 q 292 717 249 771 q 335 568 335 663 l 335 195 q 428 260 371 232 q 534 297 485 289 l 534 764 l 728 764 l 728 298 q 861 241 813 287 q 909 126 909 195 q 867 24 909 61 q 736 -12 824 -12 q 584 33 633 -12 q 534 174 534 79 l 534 197 q 423 131 481 186 q 323 0 365 75 l 142 0 z "},"บ":{"ha":920,"x_min":17,"x_max":815,"o":"m 61 127 l 142 155 l 142 513 q 51 548 85 514 q 17 637 17 582 q 56 734 17 698 q 161 771 96 771 q 291 719 246 771 q 335 568 335 667 l 335 155 l 515 155 q 598 182 573 155 q 623 273 623 209 l 623 764 l 815 764 l 815 248 q 567 0 815 0 l 61 0 l 61 127 m 97 642 q 113 601 97 616 q 155 586 130 586 q 196 601 179 586 q 212 642 212 616 q 196 683 212 667 q 155 699 179 699 q 113 683 130 699 q 97 642 97 667 z "},"ป":{"ha":920,"x_min":17,"x_max":815,"o":"m 61 127 l 142 155 l 142 513 q 51 548 85 514 q 17 637 17 582 q 56 734 17 698 q 161 771 96 771 q 291 719 246 771 q 335 568 335 667 l 335 155 l 515 155 q 598 182 573 155 q 623 273 623 209 l 623 1146 l 815 1146 l 815 248 q 567 0 815 0 l 61 0 l 61 127 m 97 642 q 113 601 97 616 q 155 586 130 586 q 196 601 179 586 q 212 642 212 616 q 196 683 212 667 q 155 699 179 699 q 113 683 130 699 q 97 642 97 667 z "},"ผ":{"ha":961,"x_min":109,"x_max":852,"o":"m 306 513 l 306 215 l 447 437 l 514 437 l 656 215 l 656 764 l 852 764 l 852 0 l 656 0 l 481 273 l 306 0 l 109 0 l 109 607 q 158 727 109 682 q 289 771 208 771 q 391 737 355 771 q 427 642 427 703 q 394 551 427 586 q 306 513 362 517 m 346 642 q 330 683 346 667 q 288 699 313 699 q 247 683 264 699 q 231 642 231 667 q 247 601 231 616 q 288 586 264 586 q 330 601 313 586 q 346 642 346 616 z "},"ฝ":{"ha":961,"x_min":109,"x_max":852,"o":"m 306 513 l 306 215 l 447 437 l 514 437 l 656 215 l 656 1146 l 852 1146 l 852 0 l 656 0 l 481 273 l 306 0 l 109 0 l 109 607 q 158 727 109 682 q 289 771 208 771 q 391 737 355 771 q 427 642 427 703 q 394 551 427 586 q 306 513 362 517 m 346 642 q 330 683 346 667 q 288 699 313 699 q 247 683 264 699 q 231 642 231 667 q 247 601 231 616 q 288 586 264 586 q 330 601 313 586 q 346 642 346 616 z "},"พ":{"ha":990,"x_min":17,"x_max":882,"o":"m 138 0 l 138 513 q 51 549 84 514 q 17 637 17 583 q 56 734 17 698 q 161 771 96 771 q 291 719 246 771 q 335 568 335 667 l 335 285 l 476 758 l 543 758 l 685 285 l 685 764 l 882 764 l 882 0 l 685 0 l 510 595 l 335 0 l 138 0 m 97 642 q 113 601 97 616 q 155 586 130 586 q 196 601 179 586 q 212 642 212 616 q 196 683 212 667 q 155 699 179 699 q 113 683 130 699 q 97 642 97 667 z "},"ฟ":{"ha":990,"x_min":17,"x_max":882,"o":"m 138 0 l 138 513 q 51 549 84 514 q 17 637 17 583 q 56 734 17 698 q 161 771 96 771 q 291 719 246 771 q 335 568 335 667 l 335 285 l 476 758 l 543 758 l 685 285 l 685 1146 l 882 1146 l 882 0 l 685 0 l 510 593 l 335 0 l 138 0 m 97 642 q 113 601 97 616 q 155 586 130 586 q 196 601 179 586 q 212 642 212 616 q 196 683 212 667 q 155 699 179 699 q 113 683 130 699 q 97 642 97 667 z "},"ภ":{"ha":942,"x_min":17,"x_max":838,"o":"m 644 0 l 644 429 q 476 635 644 635 q 310 562 336 635 q 402 527 355 551 q 471 481 449 504 l 471 400 q 367 345 399 382 q 335 250 335 308 l 335 150 q 289 30 335 73 q 160 -12 243 -12 q 54 22 92 -12 q 17 117 17 56 q 52 207 17 172 q 142 245 86 242 l 142 260 q 180 383 142 339 q 302 443 219 427 q 215 479 273 464 q 115 494 157 494 q 217 706 125 635 q 475 778 308 778 q 748 704 658 778 q 838 472 838 630 l 838 0 l 644 0 m 97 117 q 113 75 97 91 q 155 60 130 60 q 196 75 179 60 q 212 117 212 91 q 196 157 212 142 q 155 172 179 172 q 113 157 130 172 q 97 117 97 142 z "},"ม":{"ha":893,"x_min":17,"x_max":785,"o":"m 603 0 q 501 133 558 79 q 392 197 444 186 l 392 174 q 342 33 392 79 q 191 -12 293 -12 q 60 24 102 -12 q 17 126 17 61 q 65 241 17 195 q 199 298 114 288 l 199 513 q 108 548 142 514 q 74 637 74 582 q 113 734 74 698 q 218 771 153 771 q 348 719 303 771 q 392 568 392 667 l 392 297 q 498 260 441 289 q 591 195 555 232 l 591 762 l 785 762 l 785 0 l 603 0 m 154 642 q 170 601 154 616 q 212 586 186 586 q 253 601 236 586 q 269 642 269 616 q 253 683 269 667 q 212 699 236 699 q 170 683 186 699 q 154 642 154 667 m 129 123 q 138 90 129 102 q 163 77 148 77 q 199 127 199 77 l 199 208 q 148 178 167 203 q 129 123 129 154 z "},"ย":{"ha":905,"x_min":106,"x_max":802,"o":"m 106 0 l 106 183 q 132 294 106 253 q 216 357 157 336 q 134 413 162 374 q 106 521 106 451 l 106 595 q 155 723 106 675 q 285 771 205 771 q 387 738 351 771 q 424 643 424 704 q 392 552 424 586 q 298 511 359 517 l 298 505 q 333 432 298 456 q 439 406 367 407 l 439 310 q 331 273 364 304 q 298 180 298 243 l 298 155 l 501 155 q 584 182 559 155 q 608 273 608 209 l 608 764 l 802 764 l 802 248 q 738 62 802 123 q 553 0 675 0 l 106 0 m 343 642 q 327 683 343 667 q 285 699 311 699 q 244 683 261 699 q 228 642 228 667 q 244 601 228 616 q 285 586 261 586 q 327 601 311 586 q 343 642 343 616 z "},"ร":{"ha":742,"x_min":52,"x_max":714,"o":"m 714 619 l 351 619 q 267 595 291 619 q 243 515 243 570 l 347 515 q 528 489 461 515 q 624 406 594 462 q 654 237 654 349 l 654 176 q 479 -12 654 -12 q 374 22 414 -12 q 335 121 335 56 q 369 209 335 174 q 461 245 402 243 l 461 261 q 431 346 461 321 q 330 371 400 371 l 52 371 l 52 510 q 119 699 52 634 q 314 764 186 764 l 714 764 l 714 619 m 415 117 q 431 75 415 91 q 473 60 448 60 q 514 75 497 60 q 530 117 530 91 q 514 157 530 142 q 473 172 497 172 q 431 157 448 172 q 415 117 415 142 z "},"ฤ":{"ha":905,"x_min":83,"x_max":802,"o":"m 410 121 q 370 24 410 60 q 265 -12 330 -12 q 90 176 90 -12 l 90 253 q 135 377 90 331 q 271 440 180 422 q 184 478 243 461 q 83 494 125 494 q 180 705 90 632 q 440 778 271 778 q 712 704 623 778 q 802 472 802 629 l 802 -353 l 608 -353 l 608 429 q 568 585 608 536 q 444 635 527 635 q 334 616 377 635 q 279 562 291 598 q 374 532 325 555 q 439 486 422 508 l 439 400 q 315 346 347 376 q 283 267 283 315 l 283 245 q 377 209 344 242 q 410 121 410 176 m 329 117 q 313 157 329 142 q 271 172 297 172 q 230 157 247 172 q 214 117 214 142 q 230 75 214 91 q 271 60 247 60 q 313 75 297 60 q 329 117 329 91 z "},"ล":{"ha":878,"x_min":75,"x_max":774,"o":"m 606 0 q 480 268 540 181 q 363 355 421 355 q 277 261 277 355 l 277 245 q 371 208 338 242 q 403 117 403 173 q 362 23 403 59 q 258 -12 322 -12 q 126 36 168 -12 q 83 179 83 84 l 83 253 q 147 407 83 349 q 321 464 211 464 q 461 426 401 464 q 581 290 522 387 l 581 439 q 395 625 581 625 q 142 550 288 625 l 75 684 q 436 778 237 778 q 774 464 774 778 l 774 0 l 606 0 m 322 117 q 306 157 322 142 q 264 172 290 172 q 223 157 240 172 q 207 117 207 142 q 223 75 207 91 q 264 60 240 60 q 306 75 290 60 q 322 117 322 91 z "},"ฦ":{"ha":942,"x_min":17,"x_max":838,"o":"m 644 -353 l 644 429 q 476 635 644 635 q 310 562 336 635 q 402 527 355 551 q 471 481 449 504 l 471 400 q 367 345 399 382 q 335 250 335 308 l 335 150 q 289 30 335 73 q 160 -12 243 -12 q 54 22 92 -12 q 17 117 17 56 q 52 207 17 172 q 142 245 86 242 l 142 260 q 180 383 142 339 q 302 443 219 427 q 215 479 273 464 q 115 494 157 494 q 217 706 125 635 q 475 778 308 778 q 748 704 658 778 q 838 472 838 630 l 838 -353 l 644 -353 m 97 117 q 113 75 97 91 q 155 60 130 60 q 196 75 179 60 q 212 117 212 91 q 196 157 212 142 q 155 172 179 172 q 113 157 130 172 q 97 117 97 142 z "},"ว":{"ha":722,"x_min":0,"x_max":618,"o":"m 425 245 l 425 456 q 279 625 425 625 q 181 606 232 625 q 66 550 130 587 l 0 684 q 319 778 144 778 q 543 701 467 778 q 618 478 618 625 l 618 176 q 575 35 618 82 q 441 -12 532 -12 q 338 21 376 -12 q 300 118 300 55 q 336 208 300 174 q 425 245 373 243 m 380 117 q 397 75 380 91 q 439 60 413 60 q 479 75 463 60 q 496 117 496 91 q 479 157 496 142 q 439 172 463 172 q 397 157 413 172 q 380 117 380 142 z "},"ศ":{"ha":970,"x_min":69,"x_max":989,"o":"m 285 318 q 367 470 321 424 q 475 515 412 515 l 482 515 l 492 514 q 615 572 576 549 q 468 635 571 635 q 319 589 376 635 q 261 468 261 543 q 277 351 261 410 l 285 318 m 532 386 q 516 428 532 414 q 473 443 500 443 q 433 428 450 443 q 416 386 416 414 q 433 345 416 360 q 473 329 450 329 q 516 345 500 329 q 532 386 532 360 m 989 818 q 912 684 956 743 q 829 596 869 625 q 850 472 850 546 l 850 0 l 657 0 l 657 429 q 653 485 657 459 q 591 463 642 480 q 612 386 612 431 q 577 291 612 324 q 475 257 542 257 q 419 269 444 257 q 380 296 393 280 q 347 221 358 255 q 328 140 336 186 q 319 39 319 94 l 319 0 l 126 0 l 126 81 q 98 318 126 210 q 75 418 81 381 q 69 494 69 454 q 174 702 69 625 q 460 778 279 778 q 737 710 637 778 q 791 818 774 765 l 989 818 z "},"ษ":{"ha":1011,"x_min":17,"x_max":1015,"o":"m 564 268 q 425 303 473 268 q 376 404 376 338 q 413 496 376 463 q 511 529 450 529 q 608 497 572 529 q 644 411 644 465 q 625 345 644 372 q 686 361 671 355 l 686 764 l 879 764 l 879 501 q 925 585 907 540 l 1015 585 q 879 385 970 467 l 879 248 q 631 0 879 0 l 61 0 l 61 127 l 142 155 l 142 513 q 51 548 85 514 q 17 637 17 582 q 56 734 17 698 q 161 771 96 771 q 291 719 246 771 q 335 568 335 667 l 335 155 l 579 155 q 662 182 637 155 q 686 273 686 209 l 686 283 q 564 268 626 268 m 97 642 q 113 601 97 616 q 155 586 130 586 q 196 601 179 586 q 212 642 212 616 q 196 683 212 667 q 155 699 179 699 q 113 683 130 699 q 97 642 97 667 m 458 404 q 473 367 458 381 q 511 353 488 353 q 548 367 533 353 q 562 404 562 381 q 548 442 562 428 q 511 456 533 456 q 473 442 488 456 q 458 404 458 428 z "},"ส":{"ha":893,"x_min":75,"x_max":913,"o":"m 322 117 q 306 157 322 142 q 264 172 290 172 q 223 157 240 172 q 207 117 207 142 q 223 75 207 91 q 264 60 240 60 q 306 75 290 60 q 322 117 322 91 m 457 421 q 581 281 531 372 l 581 467 q 457 421 524 443 m 665 713 q 715 818 698 765 l 913 818 q 837 686 881 747 q 753 596 793 625 q 774 472 774 544 l 774 0 l 629 0 q 363 355 495 355 q 277 261 277 355 l 277 245 q 371 208 338 242 q 403 117 403 173 q 362 23 403 59 q 258 -12 322 -12 q 126 36 168 -12 q 83 179 83 84 l 83 253 q 147 407 83 349 q 321 464 211 464 q 349 461 340 464 q 546 566 432 493 q 485 610 524 595 q 395 625 445 625 q 142 550 288 625 l 75 684 q 436 778 237 778 q 665 713 587 778 z "},"ห":{"ha":909,"x_min":17,"x_max":806,"o":"m 538 497 q 499 555 515 524 q 484 631 484 587 q 527 732 484 692 q 640 771 571 771 q 745 739 706 771 q 785 644 785 706 q 729 518 785 571 q 789 441 772 482 q 806 323 806 400 l 806 0 l 612 0 l 612 294 q 608 381 612 356 q 595 412 604 406 q 325 0 446 296 l 142 0 l 142 513 q 51 549 85 516 q 17 637 17 582 q 56 734 17 698 q 161 771 96 771 q 291 719 246 771 q 335 568 335 667 l 335 269 q 538 497 420 412 m 97 642 q 113 601 97 616 q 155 586 130 586 q 196 601 179 586 q 212 642 212 616 q 196 683 212 667 q 155 699 179 699 q 113 683 130 699 q 97 642 97 667 m 690 646 q 675 685 690 672 q 637 699 659 699 q 600 684 614 699 q 586 646 586 669 q 643 572 586 601 q 690 646 690 604 z "},"ฬ":{"ha":990,"x_min":17,"x_max":1060,"o":"m 138 0 l 138 513 q 51 549 84 514 q 17 637 17 583 q 56 734 17 698 q 161 771 96 771 q 291 719 246 771 q 335 568 335 667 l 335 215 l 476 437 l 543 437 l 685 215 l 685 729 q 606 778 633 745 q 579 860 579 812 q 616 951 579 918 q 714 985 653 985 q 811 953 774 985 q 847 868 847 922 q 829 806 847 831 q 905 861 877 823 q 949 974 933 899 l 1060 974 q 993 813 1037 871 q 882 733 949 756 l 882 0 l 685 0 l 510 273 l 335 0 l 138 0 m 97 642 q 113 601 97 616 q 155 586 130 586 q 196 601 179 586 q 212 642 212 616 q 196 683 212 667 q 155 699 179 699 q 113 683 130 699 q 97 642 97 667 m 661 860 q 676 823 661 837 q 714 808 690 808 q 750 823 736 808 q 765 860 765 837 q 750 897 765 884 q 714 911 736 911 q 676 897 690 911 q 661 860 661 884 z "},"อ":{"ha":860,"x_min":83,"x_max":755,"o":"m 83 322 q 130 459 83 410 q 260 507 177 507 q 361 473 326 507 q 397 378 397 439 q 365 288 397 322 q 277 249 333 253 l 277 231 q 283 184 277 200 q 302 162 289 169 q 363 155 316 155 l 471 155 q 545 172 527 155 q 562 245 562 188 l 562 439 q 522 581 562 536 q 389 625 481 625 q 151 550 290 625 l 85 684 q 432 778 239 778 q 755 464 755 778 l 755 233 q 699 55 755 109 q 521 0 643 0 l 318 0 q 139 53 195 0 q 83 233 83 106 l 83 322 m 317 378 q 300 419 317 404 q 258 435 284 435 q 218 419 235 435 q 201 378 201 404 q 218 337 201 353 q 258 322 235 322 q 300 337 284 322 q 317 378 317 353 z "},"ฮ":{"ha":860,"x_min":83,"x_max":879,"o":"m 737 611 q 755 500 755 574 l 755 233 q 699 55 755 109 q 521 0 643 0 l 315 0 q 140 52 197 0 q 83 227 83 104 l 83 267 q 130 403 83 355 q 260 452 177 452 q 361 417 326 452 q 397 322 397 383 q 365 232 397 267 q 277 193 333 197 q 285 165 277 174 q 321 155 294 155 l 471 155 q 545 172 527 155 q 562 245 562 188 l 562 507 l 561 521 q 383 489 486 489 q 102 632 102 489 q 173 744 102 704 q 382 785 245 785 q 527 771 464 785 q 637 726 590 758 q 682 818 669 777 l 879 818 q 737 611 817 682 m 379 696 q 273 679 313 696 q 233 636 233 663 q 272 597 233 611 q 383 583 311 583 q 534 616 475 583 q 476 675 518 654 q 379 696 435 696 m 317 322 q 300 363 317 348 q 258 379 284 379 q 218 363 235 379 q 201 322 201 348 q 218 282 201 297 q 258 267 235 267 q 300 282 284 267 q 317 322 317 297 z "},"ฯ":{"ha":757,"x_min":11,"x_max":648,"o":"m 456 0 l 456 515 q 208 439 362 439 q 64 477 117 439 q 11 582 11 516 q 48 673 11 640 q 146 707 85 707 q 243 675 206 707 q 279 590 279 643 q 261 524 279 549 q 398 604 341 546 q 493 764 455 663 l 648 764 l 648 0 l 456 0 m 93 582 q 107 545 93 559 q 146 530 122 530 q 182 545 168 530 q 197 582 197 559 q 182 620 197 606 q 146 633 168 633 q 107 620 122 633 q 93 582 93 606 z "},"ะ":{"ha":679,"x_min":47,"x_max":646,"o":"m 241 401 q 98 440 149 401 q 47 545 47 479 q 84 636 47 603 q 182 669 121 669 q 279 637 242 669 q 315 553 315 606 q 297 486 315 510 q 439 569 383 511 q 530 725 494 626 l 646 725 q 493 483 597 565 q 241 401 388 401 m 129 545 q 143 507 129 522 q 182 493 158 493 q 218 507 203 493 q 233 545 233 522 q 218 582 233 568 q 182 596 203 596 q 143 582 158 596 q 129 545 129 568 m 241 65 q 98 104 149 65 q 47 208 47 142 q 85 300 47 267 q 182 334 122 334 q 279 301 243 334 q 315 216 315 268 q 297 150 315 174 q 435 229 379 173 q 530 390 492 286 l 646 390 q 495 149 598 232 q 241 65 391 65 m 129 208 q 143 172 129 185 q 182 158 158 158 q 218 172 203 158 q 233 208 233 185 q 218 246 233 232 q 182 260 203 260 q 143 246 158 260 q 129 208 129 232 z "},"ั":{"ha":0,"x_min":-449,"x_max":32,"o":"m -254 822 q -398 861 -347 822 q -449 965 -449 899 q -412 1057 -449 1024 q -314 1090 -374 1090 q -217 1059 -254 1090 q -180 974 -180 1027 q -199 911 -180 935 q -120 970 -148 929 q -79 1079 -92 1012 l 32 1079 q -68 883 3 945 q -254 822 -138 822 m -367 965 q -352 928 -367 942 q -314 914 -338 914 q -277 928 -292 914 q -262 965 -262 942 q -277 1003 -262 989 q -314 1017 -292 1017 q -352 1003 -338 1017 q -367 965 -367 989 z "},"า":{"ha":722,"x_min":0,"x_max":618,"o":"m 618 0 l 425 0 l 425 456 q 279 625 425 625 q 181 606 232 625 q 66 550 130 587 l 0 684 q 319 778 144 778 q 543 701 467 778 q 618 478 618 625 l 618 0 z "},"ำ":{"ha":722,"x_min":-361,"x_max":618,"o":"m 618 0 l 425 0 l 425 456 q 279 625 425 625 q 181 606 232 625 q 66 550 130 587 l 0 684 q 319 778 144 778 q 543 701 467 778 q 618 478 618 625 l 618 0 m -361 951 q -325 1041 -361 1008 q -230 1074 -288 1074 q -133 1041 -169 1074 q -97 951 -97 1009 q -133 862 -97 895 q -230 829 -169 829 q -325 862 -290 829 q -361 951 -361 895 m -283 951 q -268 911 -283 926 q -229 897 -252 897 q -190 911 -205 897 q -174 951 -174 926 q -190 991 -174 977 q -229 1006 -205 1006 q -268 991 -252 1006 q -283 951 -283 977 z "},"ิ":{"ha":0,"x_min":-685,"x_max":-97,"o":"m -97 818 q -404 869 -271 854 q -685 884 -538 884 q -590 1043 -662 986 q -419 1100 -519 1100 q -210 1028 -294 1100 q -97 818 -126 956 m -421 1025 q -558 953 -528 1025 q -214 909 -405 953 q -294 994 -239 962 q -421 1025 -349 1025 z "},"ี":{"ha":0,"x_min":-685,"x_max":-97,"o":"m -97 818 q -404 869 -271 854 q -685 884 -538 884 q -590 1043 -662 986 q -419 1100 -519 1100 q -201 1019 -286 1100 l -201 1147 l -121 1147 l -121 897 q -97 818 -106 860 m -421 1025 q -558 953 -528 1025 q -214 909 -391 950 q -294 994 -239 962 q -421 1025 -349 1025 z "},"ึ":{"ha":0,"x_min":-685,"x_max":-26,"o":"m -97 818 q -404 869 -271 854 q -685 884 -538 884 q -590 1043 -662 986 q -419 1100 -519 1100 q -253 1059 -325 1100 q -211 1115 -241 1093 q -143 1137 -181 1137 q -59 1106 -91 1137 q -26 1023 -26 1075 q -54 948 -26 978 q -126 911 -81 918 q -97 818 -109 875 m -189 1023 q -176 989 -189 1002 q -143 977 -163 977 q -110 990 -123 977 q -97 1025 -97 1004 q -110 1059 -97 1046 q -143 1072 -123 1072 q -177 1058 -164 1072 q -189 1023 -189 1044 m -421 1025 q -558 953 -528 1025 q -214 909 -405 953 q -294 994 -239 962 q -421 1025 -349 1025 z "},"ื":{"ha":0,"x_min":-685,"x_max":-97,"o":"m -97 818 q -404 869 -271 854 q -685 884 -538 884 q -590 1043 -662 986 q -419 1100 -519 1100 q -351 1095 -393 1100 l -351 1147 l -271 1147 l -271 1067 q -201 1018 -230 1046 l -201 1147 l -121 1147 l -121 897 q -97 818 -106 860 m -421 1025 q -558 953 -528 1025 q -214 909 -391 950 q -294 994 -239 962 q -421 1025 -349 1025 z "},"ุ":{"ha":0,"x_min":-309,"x_max":-110,"o":"m -224 -353 l -224 -231 q -284 -208 -260 -229 q -309 -147 -309 -188 q -282 -84 -309 -106 q -214 -62 -256 -62 q -110 -176 -110 -62 l -110 -353 l -224 -353 m -250 -147 q -241 -170 -250 -162 q -218 -178 -233 -178 q -196 -170 -205 -178 q -187 -147 -187 -162 q -196 -123 -187 -132 q -218 -115 -205 -115 q -241 -123 -233 -115 q -250 -147 -250 -132 z "},"ู":{"ha":0,"x_min":-514,"x_max":-110,"o":"m -429 -231 q -490 -208 -466 -229 q -514 -147 -514 -188 q -488 -84 -514 -106 q -419 -62 -461 -62 q -315 -176 -315 -62 l -315 -253 l -224 -253 l -224 -72 l -110 -72 l -110 -355 l -429 -355 l -429 -231 m -456 -147 q -447 -170 -456 -162 q -424 -178 -438 -178 q -402 -170 -410 -178 q -393 -147 -393 -162 q -402 -123 -393 -132 q -424 -115 -410 -115 q -447 -123 -438 -115 q -456 -147 -456 -132 z "},"ฺ":{"ha":0,"x_min":-275,"x_max":-119,"o":"m -275 -150 q -253 -95 -275 -118 q -197 -72 -230 -72 q -142 -95 -164 -72 q -119 -150 -119 -119 q -142 -207 -119 -184 q -197 -229 -165 -229 q -252 -207 -229 -229 q -275 -150 -275 -185 z "},"฿":{"ha":908,"x_min":125,"x_max":835,"o":"m 125 991 l 419 991 l 419 1084 l 515 1084 l 515 989 q 740 917 670 977 q 810 741 810 857 q 768 595 810 652 q 657 526 726 538 l 657 519 q 793 441 751 498 q 835 288 835 383 q 750 80 835 156 q 515 0 665 4 l 515 -114 l 419 -114 l 419 0 l 125 0 l 125 991 m 335 174 l 419 174 l 419 432 l 335 432 l 335 174 m 623 309 q 596 394 623 365 q 515 429 569 422 l 515 175 q 596 215 570 182 q 623 309 623 248 m 335 599 l 419 599 l 419 819 l 335 819 l 335 599 m 600 713 q 580 782 600 758 q 515 814 560 806 l 515 603 q 582 639 564 611 q 600 713 600 667 z "},"เ":{"ha":454,"x_min":118,"x_max":437,"o":"m 437 121 q 397 24 437 60 q 293 -12 357 -12 q 118 176 118 -12 l 118 762 l 311 762 l 311 245 q 405 209 372 242 q 437 121 437 176 m 357 117 q 341 157 357 142 q 298 172 325 172 q 258 157 275 172 q 241 117 241 142 q 258 75 241 91 q 298 60 275 60 q 341 75 325 60 q 357 117 357 91 z "},"แ":{"ha":848,"x_min":118,"x_max":832,"o":"m 437 121 q 397 24 437 60 q 293 -12 357 -12 q 118 176 118 -12 l 118 762 l 311 762 l 311 245 q 405 209 372 242 q 437 121 437 176 m 357 117 q 341 157 357 142 q 298 172 325 172 q 258 157 275 172 q 241 117 241 142 q 258 75 241 91 q 298 60 275 60 q 341 75 325 60 q 357 117 357 91 m 832 121 q 792 24 832 60 q 688 -12 752 -12 q 513 176 513 -12 l 513 762 l 706 762 l 706 245 q 799 209 766 242 q 832 121 832 176 m 751 117 q 735 157 751 142 q 693 172 720 172 q 653 157 669 172 q 636 117 636 142 q 653 75 636 91 q 693 60 669 60 q 735 75 720 60 q 751 117 751 91 z "},"โ":{"ha":644,"x_min":17,"x_max":640,"o":"m 269 842 q 256 936 269 905 q 211 979 243 966 q 122 993 180 993 l 17 993 l 17 1132 q 84 1321 17 1256 q 279 1386 151 1386 l 640 1386 l 640 1242 l 317 1242 q 232 1217 256 1242 q 208 1137 208 1192 q 357 1108 302 1137 q 437 1019 412 1079 q 463 846 463 959 l 463 245 q 556 209 523 242 q 589 121 589 176 q 549 24 589 60 q 444 -12 509 -12 q 269 176 269 -12 l 269 842 m 509 117 q 492 157 509 142 q 450 172 476 172 q 410 157 426 172 q 393 117 393 142 q 410 75 393 91 q 450 60 426 60 q 492 75 476 60 q 509 117 509 91 z "},"ใ":{"ha":667,"x_min":24,"x_max":642,"o":"m 503 245 q 596 209 563 242 q 629 121 629 176 q 589 24 629 60 q 485 -12 549 -12 q 310 176 310 -12 l 310 926 q 341 1083 310 1021 q 447 1192 373 1145 q 394 1276 435 1244 q 289 1307 353 1307 q 179 1279 223 1307 q 121 1194 134 1251 q 191 1225 147 1225 q 274 1192 243 1225 q 304 1104 304 1159 q 269 1014 304 1048 q 174 979 233 979 q 63 1022 102 979 q 24 1145 24 1065 q 103 1332 24 1263 q 321 1400 182 1400 q 546 1335 462 1400 q 642 1158 630 1271 q 553 1094 580 1122 q 514 1028 526 1065 q 503 933 503 991 l 503 245 m 549 117 q 532 157 549 142 q 490 172 516 172 q 450 157 467 172 q 433 117 433 142 q 450 75 433 91 q 490 60 467 60 q 532 75 516 60 q 549 117 549 91 m 222 1103 q 209 1140 222 1126 q 172 1154 195 1154 q 136 1140 149 1154 q 123 1103 123 1126 q 136 1065 123 1079 q 172 1051 149 1051 q 209 1065 195 1051 q 222 1103 222 1079 z "},"ไ":{"ha":717,"x_min":24,"x_max":679,"o":"m 359 1164 q 358 1213 359 1202 q 350 1223 356 1223 q 334 1208 343 1223 q 225 990 326 1194 l 96 990 l 24 1400 l 168 1400 l 199 1178 q 270 1320 252 1289 q 309 1368 288 1350 q 355 1394 330 1386 q 406 1400 381 1401 q 553 1239 553 1400 l 553 245 q 646 209 613 242 q 679 121 679 176 q 639 24 679 60 q 534 -12 599 -12 q 359 176 359 -12 l 359 1164 m 599 117 q 583 157 599 142 q 541 172 566 172 q 500 157 517 172 q 484 117 484 142 q 500 75 484 91 q 541 60 517 60 q 583 75 566 60 q 599 117 599 91 z "},"ๅ":{"ha":722,"x_min":0,"x_max":618,"o":"m 618 -353 l 425 -353 l 425 456 q 279 625 425 625 q 181 606 232 625 q 66 550 130 587 l 0 684 q 319 778 144 778 q 543 701 467 778 q 618 478 618 625 l 618 -353 z "},"ๆ":{"ha":722,"x_min":18,"x_max":618,"o":"m 425 -353 l 425 538 q 419 601 425 576 q 402 641 413 625 q 364 669 391 656 l 281 596 l 197 669 q 115 572 125 658 q 184 603 143 603 q 268 570 237 603 q 298 482 298 537 q 262 391 298 425 q 168 357 227 357 q 58 403 98 357 q 18 530 18 450 q 69 704 18 640 q 215 778 120 768 l 282 708 l 359 778 q 555 712 493 778 q 618 510 618 646 l 618 -353 l 425 -353 m 216 481 q 203 518 216 504 q 167 532 190 532 q 131 518 144 532 q 118 481 118 504 q 131 443 118 457 q 167 429 144 429 q 203 443 190 429 q 216 481 216 457 z "},"็":{"ha":0,"x_min":-590,"x_max":-62,"o":"m -155 909 q -207 927 -189 909 q -225 972 -225 945 q -205 1019 -225 1001 q -153 1038 -184 1038 q -91 1011 -112 1038 q -69 943 -69 985 q -102 854 -69 887 q -192 821 -136 821 q -250 831 -224 821 q -296 855 -275 842 q -334 883 -317 869 q -366 904 -351 897 q -432 821 -395 860 q -548 878 -507 836 q -590 985 -590 920 q -546 1098 -590 1057 q -416 1139 -503 1139 l -222 1139 q -62 1162 -115 1139 l -62 1078 q -195 1055 -109 1055 l -408 1055 q -475 1035 -455 1055 q -494 986 -494 1015 q -443 918 -494 935 q -386 1002 -414 948 q -333 978 -359 995 q -282 942 -307 960 q -235 910 -258 924 q -193 896 -212 896 q -155 909 -171 896 m -179 972 q -153 947 -179 947 q -135 954 -142 947 q -127 972 -127 961 q -135 991 -127 984 q -153 999 -142 999 q -172 991 -165 999 q -179 972 -179 984 z "},"ํ":{"ha":0,"x_min":-340,"x_max":-77,"o":"m -340 951 q -304 1041 -340 1008 q -210 1074 -268 1074 q -113 1041 -149 1074 q -77 951 -77 1009 q -113 862 -77 895 q -210 829 -149 829 q -305 862 -269 829 q -340 951 -340 895 m -262 951 q -247 911 -262 926 q -208 897 -232 897 q -170 911 -185 897 q -154 951 -154 926 q -170 991 -154 977 q -208 1006 -185 1006 q -247 991 -232 1006 q -262 951 -262 977 z "},"๎":{"ha":0,"x_min":-336,"x_max":-53,"o":"m -132 961 q -229 952 -206 961 q -252 924 -252 943 q -238 902 -252 909 q -191 895 -224 895 q -86 916 -147 895 l -86 847 q -130 833 -101 840 q -192 827 -159 827 q -336 918 -336 827 q -311 976 -336 953 q -241 1003 -286 1000 q -276 1027 -262 1013 q -290 1067 -290 1041 q -256 1130 -290 1106 q -168 1154 -222 1154 q -53 1132 -96 1154 l -78 1068 q -154 1086 -121 1086 q -211 1055 -211 1086 q -191 1032 -211 1038 q -132 1026 -172 1026 l -132 961 z "},"๏":{"ha":900,"x_min":52,"x_max":848,"o":"m 52 382 q 105 581 52 489 q 251 726 158 673 q 450 779 344 779 q 649 726 556 779 q 795 581 742 673 q 848 382 848 489 q 795 184 848 275 q 649 40 742 93 q 450 -14 556 -14 q 250 40 342 -14 q 104 185 157 94 q 52 382 52 275 m 184 382 q 260 189 184 266 q 450 111 335 111 q 585 146 524 111 q 681 243 646 180 q 715 382 715 307 q 681 521 715 458 q 585 620 646 585 q 450 654 524 654 q 260 577 336 654 q 184 382 184 499 m 313 382 q 353 480 313 439 q 450 521 393 521 q 547 480 507 521 q 587 382 587 439 q 547 286 587 326 q 450 245 507 245 q 353 286 393 245 q 313 382 313 326 z "},"๐":{"ha":928,"x_min":78,"x_max":850,"o":"m 463 131 q 612 179 555 131 q 668 310 668 228 q 612 440 668 392 q 463 488 556 488 q 315 439 370 488 q 260 310 260 391 q 316 179 260 228 q 463 131 372 131 m 463 -14 q 182 73 286 -14 q 78 309 78 159 q 181 545 78 459 q 463 631 285 631 q 746 545 642 631 q 850 309 850 458 q 745 73 850 160 q 463 -14 641 -14 z "},"๑":{"ha":966,"x_min":78,"x_max":889,"o":"m 412 285 q 426 250 412 262 q 463 237 439 237 q 499 250 486 237 q 513 285 513 262 q 499 322 513 309 q 463 335 486 335 q 426 322 439 335 q 412 285 412 309 m 889 258 q 789 -14 889 100 l 652 66 q 696 157 685 119 q 707 254 707 195 q 676 378 707 326 q 592 459 645 431 q 471 488 538 488 q 306 431 368 488 q 244 281 244 375 q 290 144 244 195 q 411 94 336 94 q 525 200 516 94 q 447 170 498 170 q 363 199 393 170 q 334 285 334 229 q 371 372 334 339 q 468 404 408 404 q 588 354 545 404 q 632 215 632 304 q 565 45 632 108 q 383 -17 498 -17 q 160 63 242 -17 q 78 277 78 143 q 189 535 78 439 q 485 631 300 631 q 780 530 671 631 q 889 258 889 429 z "},"๒":{"ha":1021,"x_min":104,"x_max":921,"o":"m 621 155 q 703 182 679 155 q 728 273 728 209 l 728 395 q 719 477 728 449 q 681 524 709 506 l 606 453 l 532 526 q 450 429 456 514 q 519 460 475 460 q 603 427 572 460 q 633 339 633 394 q 597 248 633 282 q 503 214 562 214 q 393 260 433 214 q 353 387 353 307 q 404 559 353 496 q 549 632 454 622 l 611 562 l 684 632 q 864 571 807 632 q 921 385 921 509 l 921 248 q 672 0 921 0 l 353 0 q 104 248 104 0 l 104 791 l 297 791 l 297 273 q 321 182 297 209 q 404 155 346 155 l 621 155 m 551 338 q 538 375 551 361 q 501 389 524 389 q 466 375 478 389 q 453 338 453 361 q 466 300 453 314 q 501 286 478 286 q 538 300 524 286 q 551 338 551 314 z "},"๓":{"ha":1000,"x_min":78,"x_max":922,"o":"m 465 107 q 452 144 465 130 q 415 158 439 158 q 380 144 393 158 q 367 107 367 130 q 380 70 367 83 q 415 56 393 56 q 452 70 439 56 q 465 107 465 83 m 922 319 q 891 141 922 227 q 799 -14 859 55 l 664 83 q 716 193 695 127 q 737 323 737 258 q 720 449 737 410 q 665 488 702 488 q 590 311 590 488 l 590 273 l 408 273 l 408 311 q 391 446 408 404 q 336 488 373 488 q 262 323 262 488 q 271 219 262 261 q 297 143 279 178 q 425 229 326 229 q 514 198 480 229 q 547 109 547 166 q 508 16 547 49 q 400 -17 469 -17 q 231 23 304 -17 q 118 137 157 63 q 78 313 78 211 q 139 548 78 465 q 313 631 200 631 q 500 475 463 631 q 566 591 517 551 q 688 631 615 631 q 863 551 804 631 q 922 319 922 472 z "},"๔":{"ha":922,"x_min":97,"x_max":900,"o":"m 892 0 l 428 0 q 182 74 268 0 q 97 283 97 147 q 189 511 97 422 q 469 647 280 600 q 609 690 558 669 q 684 734 661 711 q 708 791 708 758 l 900 791 q 823 615 900 681 q 555 498 747 549 q 341 409 399 456 q 283 285 283 361 q 325 185 283 215 q 460 155 366 155 l 529 155 q 481 286 481 210 q 524 402 481 358 q 636 446 567 446 q 731 413 696 446 q 766 323 766 380 q 734 236 766 268 q 648 204 702 204 q 599 215 617 204 q 716 143 633 172 q 892 111 800 115 l 892 0 m 685 323 q 671 360 685 347 q 633 374 657 374 q 598 360 612 374 q 585 323 585 347 q 598 289 585 300 q 633 277 612 277 q 671 289 657 277 q 685 323 685 300 z "},"๕":{"ha":922,"x_min":97,"x_max":900,"o":"m 892 0 l 428 0 q 182 74 268 0 q 97 283 97 147 q 147 461 97 387 q 310 591 197 536 q 271 684 271 624 q 308 774 271 739 q 404 810 346 810 q 503 775 465 810 q 541 684 541 741 l 541 674 l 539 665 q 669 722 630 694 q 708 791 708 749 l 900 791 q 823 615 900 681 q 555 498 747 549 q 341 409 399 456 q 283 285 283 361 q 325 185 283 215 q 460 155 366 155 l 529 155 q 481 286 481 210 q 524 402 481 358 q 636 446 567 446 q 731 413 696 446 q 766 323 766 380 q 734 236 766 268 q 648 204 702 204 q 599 215 617 204 q 716 143 633 172 q 892 111 800 115 l 892 0 m 351 684 q 367 643 351 657 q 406 629 382 629 q 444 643 429 629 q 460 684 460 657 q 444 723 460 709 q 406 737 429 737 q 367 723 382 737 q 351 684 351 709 m 685 323 q 671 360 685 347 q 633 374 657 374 q 598 360 612 374 q 585 323 585 347 q 598 289 585 300 q 633 277 612 277 q 671 289 657 277 q 685 323 685 300 z "},"๖":{"ha":922,"x_min":28,"x_max":807,"o":"m 408 285 q 395 322 408 309 q 359 335 382 335 q 323 322 336 335 q 310 285 310 309 q 323 250 310 262 q 359 237 336 237 q 395 250 382 237 q 408 285 408 262 m 231 790 q 282 600 256 718 q 463 631 372 631 q 712 542 616 631 q 807 302 807 453 q 721 68 807 153 q 486 -17 635 -17 q 269 47 348 -17 q 189 221 189 111 q 235 354 189 303 q 359 404 281 404 q 452 371 416 404 q 488 285 488 338 q 457 201 488 233 q 374 170 426 170 q 297 200 325 170 q 351 123 308 152 q 458 94 393 94 q 591 145 543 94 q 640 289 640 197 q 584 436 640 382 q 429 489 528 489 q 191 410 310 489 q 28 790 95 670 l 231 790 z "},"๗":{"ha":1181,"x_min":52,"x_max":1122,"o":"m 656 323 q 644 454 656 420 q 597 488 631 488 q 550 445 563 488 q 536 311 536 401 l 536 273 l 354 273 l 354 311 q 342 445 354 401 q 296 488 330 488 q 250 451 264 488 q 236 323 236 414 q 277 143 236 212 q 404 229 306 229 q 493 198 459 229 q 526 109 526 166 q 487 16 526 49 q 379 -17 448 -17 q 208 23 283 -17 q 93 137 134 62 q 52 313 52 212 q 269 631 52 631 q 449 475 415 631 q 513 589 463 547 q 636 631 563 631 q 791 563 742 631 q 840 350 840 495 l 840 155 q 915 180 893 155 q 937 273 937 204 l 937 791 l 1122 791 l 1122 248 q 869 0 1122 0 l 656 0 l 656 323 m 444 107 q 431 144 444 130 q 395 158 418 158 q 359 144 373 158 q 346 107 346 130 q 359 70 346 83 q 395 56 373 56 q 431 70 418 56 q 444 107 444 83 z "},"๘":{"ha":950,"x_min":74,"x_max":878,"o":"m 74 273 q 161 493 74 408 q 446 633 249 579 q 613 702 560 665 q 667 791 667 739 l 859 791 q 783 605 859 675 q 532 485 707 534 q 362 425 415 452 q 284 360 309 397 q 260 272 260 323 q 288 186 260 220 q 366 147 315 153 q 386 275 378 182 q 546 178 452 262 q 626 115 595 134 q 685 97 658 97 q 735 114 715 97 q 764 175 754 132 q 696 150 739 150 q 610 182 642 150 q 578 269 578 214 q 615 357 578 324 q 714 390 652 390 q 834 340 790 390 q 878 203 878 290 q 828 43 878 99 q 686 -14 779 -14 q 612 1 645 -14 q 552 34 579 15 q 503 74 525 54 q 461 106 480 94 q 440 43 454 79 q 411 -17 426 7 q 161 57 248 -17 q 74 273 74 132 m 758 269 q 744 305 758 292 q 707 318 730 318 q 672 305 686 318 q 659 269 659 292 q 672 233 659 245 q 707 221 685 221 q 758 269 758 221 z "},"๙":{"ha":970,"x_min":78,"x_max":928,"o":"m 746 579 q 788 665 774 617 q 802 791 802 713 l 928 791 q 733 419 928 519 q 674 499 696 474 q 631 538 652 524 q 604 509 627 531 q 685 361 633 473 l 850 0 l 648 0 l 511 310 q 433 452 464 417 q 359 486 402 486 q 262 323 262 486 q 271 214 262 256 q 297 138 279 172 q 343 201 308 178 q 425 224 379 224 q 513 191 478 224 q 547 102 547 157 q 390 -17 547 -17 q 227 22 298 -17 q 117 135 157 61 q 78 313 78 210 q 152 549 78 468 q 366 631 225 631 q 533 579 469 631 q 576 624 555 595 q 604 679 597 653 q 746 579 680 650 m 465 102 q 452 138 465 125 q 415 151 438 151 q 380 138 393 151 q 367 98 367 124 q 379 63 367 77 q 412 50 391 50 q 451 64 436 50 q 465 102 465 78 z "},"๚":{"ha":1022,"x_min":11,"x_max":914,"o":"m 428 0 l 428 513 q 196 439 338 439 q 61 477 111 439 q 11 582 11 515 q 48 673 11 640 q 146 707 85 707 q 243 675 206 707 q 279 590 279 643 q 261 524 279 549 q 386 608 338 549 q 465 764 434 668 l 612 764 l 612 0 l 428 0 m 93 582 q 107 545 93 559 q 146 530 122 530 q 182 545 168 530 q 197 582 197 559 q 182 620 197 606 q 146 633 168 633 q 107 620 122 633 q 93 582 93 606 m 729 764 l 914 764 l 914 0 l 729 0 l 729 764 z "},"๛":{"ha":1354,"x_min":50,"x_max":1303,"o":"m 1303 363 l 1303 297 l 1125 260 l 1051 115 l 1040 115 l 957 297 l 856 61 l 844 61 l 757 272 q 612 53 703 122 q 396 -17 520 -17 q 141 70 232 -17 q 50 307 50 156 q 134 542 50 453 q 357 631 217 631 q 528 562 463 631 q 593 380 593 492 q 549 245 593 296 q 429 195 505 195 q 334 227 370 195 q 298 315 298 260 q 332 400 298 367 q 418 433 366 433 q 479 418 452 433 q 447 492 475 465 q 375 519 420 519 q 260 460 304 519 q 216 307 216 401 q 272 168 216 218 q 425 117 328 117 q 559 153 505 117 q 653 271 614 190 q 730 509 693 352 l 746 509 l 852 240 l 949 461 l 962 461 l 1050 272 l 1117 403 l 1303 363 m 379 317 q 393 280 379 293 q 431 267 407 267 q 466 280 452 267 q 479 317 479 293 q 466 352 479 340 q 431 364 452 364 q 393 352 407 364 q 379 317 379 340 z "},"่":{"ha":0,"x_min":-258,"x_max":-144,"o":"m -258 1457 l -144 1457 l -144 1197 l -258 1197 l -258 1457 z "},"้":{"ha":0,"x_min":-501,"x_max":-58,"o":"m -288 1402 q -340 1283 -288 1322 q -229 1307 -266 1287 q -176 1371 -193 1327 q -160 1503 -160 1415 l -58 1503 q -86 1311 -58 1367 q -181 1230 -115 1255 q -368 1204 -247 1204 l -450 1204 l -450 1272 q -374 1349 -385 1311 q -418 1335 -391 1335 q -478 1358 -456 1335 q -501 1419 -501 1381 q -473 1485 -501 1459 q -401 1510 -446 1510 q -318 1480 -349 1510 q -288 1402 -288 1451 m -440 1422 q -432 1399 -440 1407 q -408 1390 -423 1390 q -386 1399 -395 1390 q -376 1422 -376 1407 q -385 1446 -376 1437 q -407 1454 -393 1454 q -430 1446 -420 1454 q -440 1422 -440 1437 z "},"๊":{"ha":0,"x_min":-616,"x_max":-58,"o":"m -232 1357 q -243 1289 -232 1322 q -160 1503 -160 1316 l -58 1503 q -86 1322 -58 1384 q -175 1232 -113 1259 q -355 1204 -237 1204 q -319 1340 -319 1279 q -357 1419 -319 1400 l -415 1367 l -482 1425 q -518 1399 -505 1417 q -530 1357 -530 1381 q -479 1375 -511 1375 q -419 1352 -441 1375 q -397 1291 -397 1328 q -424 1226 -397 1251 q -490 1202 -450 1202 q -583 1239 -549 1202 q -616 1340 -616 1276 q -583 1452 -616 1407 q -484 1510 -549 1496 l -415 1447 l -347 1510 q -262 1457 -292 1497 q -232 1357 -232 1417 m -458 1289 q -468 1312 -458 1303 q -490 1320 -477 1320 q -513 1312 -503 1320 q -522 1289 -522 1303 q -513 1265 -522 1274 q -490 1257 -504 1257 q -468 1265 -477 1257 q -458 1289 -458 1274 z "},"๋":{"ha":0,"x_min":-342,"x_max":-62,"o":"m -342 1279 l -342 1367 l -245 1367 l -245 1455 l -158 1455 l -158 1367 l -62 1367 l -62 1279 l -158 1279 l -158 1190 l -245 1190 l -245 1279 l -342 1279 z "},"์":{"ha":0,"x_min":-571,"x_max":-11,"o":"m -307 1305 q -343 1223 -307 1255 q -437 1190 -380 1190 q -534 1223 -498 1190 q -571 1312 -571 1256 q -523 1415 -571 1381 q -374 1459 -475 1450 q -224 1480 -274 1470 q -151 1506 -175 1491 q -121 1550 -127 1521 l -11 1550 q -67 1437 -22 1472 q -211 1388 -112 1402 l -329 1372 q -307 1305 -307 1348 m -493 1312 q -478 1272 -493 1286 q -439 1257 -464 1257 q -400 1272 -416 1257 q -385 1314 -385 1286 q -400 1353 -385 1338 q -437 1368 -416 1368 q -478 1353 -463 1368 q -493 1312 -493 1338 z "},"​":{"ha":0,"x_min":0,"x_max":0,"o":""},"◌":{"ha":836,"x_min":69,"x_max":766,"o":"m 676 623 q 637 583 676 583 q 597 623 597 583 q 637 663 597 663 q 676 623 676 663 m 575 689 q 538 650 575 650 q 496 689 496 650 q 538 729 496 729 q 575 689 575 729 m 743 522 q 703 482 743 482 q 664 522 664 482 q 704 561 664 561 q 743 522 743 561 m 766 404 q 729 366 766 366 q 689 404 689 366 q 729 443 689 443 q 766 404 766 443 m 457 714 q 418 673 457 673 q 378 714 378 673 q 418 753 378 753 q 457 714 457 753 m 340 689 q 300 650 340 650 q 261 689 261 650 q 300 729 261 729 q 340 689 340 729 m 743 286 q 703 248 743 248 q 664 286 664 248 q 703 326 664 326 q 743 286 743 326 m 240 623 q 200 583 240 583 q 161 621 161 583 q 200 663 161 663 q 240 623 240 663 m 676 184 q 637 146 676 146 q 597 184 597 146 q 637 225 597 225 q 676 184 676 225 m 575 118 q 538 81 575 81 q 496 118 496 81 q 538 158 496 158 q 575 118 575 158 m 172 522 q 135 482 172 482 q 93 522 93 482 q 134 561 93 561 q 172 522 172 561 m 149 404 q 110 366 149 366 q 69 404 69 366 q 110 443 69 443 q 149 404 149 443 m 457 96 q 418 56 457 56 q 378 96 378 56 q 418 135 378 135 q 457 96 457 135 m 172 286 q 134 248 172 248 q 93 286 93 248 q 134 326 93 326 q 172 286 172 326 m 340 121 q 300 81 340 81 q 261 118 261 81 q 300 158 261 158 q 340 121 340 158 m 240 184 q 200 146 240 146 q 161 184 161 146 q 200 225 161 225 q 240 184 240 225 z "}}}
